<svg width="266" height="301" viewBox="0 0 266 301" fill="none" xmlns="http://www.w3.org/2000/svg">
<g clip-path="url(#clip0_68_343)">
<path d="M260.516 227.936C253.682 221.732 243.121 222.25 236.93 229.094C214.8 253.536 183.223 267.552 150.301 267.552C85.8431 267.552 33.4031 215.041 33.4031 150.497C33.4031 85.953 85.8378 33.4425 150.295 33.4425C161.759 33.4425 173.079 35.0966 183.946 38.3574C192.781 41.0104 202.091 35.9898 204.741 27.1429C207.39 18.296 202.376 8.97351 193.541 6.3205C179.561 2.11903 165.015 -0.00549316 150.295 -0.00549316C130.013 -0.00549316 110.327 3.97402 91.7858 11.8273C73.8889 19.4058 57.8128 30.2557 44.0167 44.0756C30.2206 57.8956 19.3853 73.9827 11.8117 91.909C3.97417 110.48 0 130.187 0 150.497C0 170.807 3.97417 190.52 11.8169 209.085C19.3853 227.006 30.2206 243.104 44.0219 256.919C57.8181 270.733 73.8889 281.583 91.7911 289.167C110.332 297.02 130.018 301 150.301 301C171.881 301 192.723 296.513 212.246 287.661C231.093 279.115 247.723 266.965 261.672 251.56C267.868 244.716 267.351 234.141 260.516 227.942V227.936Z" fill="#9EA6B5"/>
<path d="M174.404 124.57C176.389 124.57 177.634 122.53 176.652 120.886L153.277 81.9789C152.28 80.3247 149.778 80.3247 148.78 81.9789L125.405 120.886C124.418 122.53 125.664 124.57 127.654 124.57H174.399H174.404Z" fill="#9EA6B5"/>
<path d="M121.748 158.921H180.321C182.743 158.921 184.126 155.592 182.669 153.261L169.586 132.275C169.105 131.504 168.256 131.033 167.348 131.033H134.71C133.902 131.033 132.9 131.593 132.472 132.275L119.389 153.261C117.932 155.597 119.32 158.921 121.737 158.921H121.748Z" fill="#9EA6B5"/>
<path d="M184.295 193.247C186.802 193.247 188.163 189.769 186.548 187.491L171.623 166.463C171.127 165.765 170.325 165.353 169.47 165.353H132.599C131.744 165.353 130.942 165.765 130.446 166.463L115.52 187.491C113.905 189.769 115.267 193.247 117.774 193.247H144.126C144.859 193.247 145.45 193.844 145.445 194.578L145.313 214.698C145.303 216.162 146.49 217.356 147.952 217.356H154.09C155.541 217.356 156.718 216.183 156.729 214.73L156.861 194.557C156.861 193.833 157.457 193.247 158.18 193.247H184.295Z" fill="#9EA6B5"/>
</g>
<defs>
<clipPath id="clip0_68_343">
<rect width="266" height="301" fill="white"/>
</clipPath>
</defs>
</svg>
